PathFileType  4	(X/Y/Z) C:\Users\antoi\Documents\MyRepositories\mobilecap\ResultsAnalysis
DataRate	CameraRate	NumFrames	NumMarkers	Units	OrigDataRate	OrigDataStartFrame	OrigNumFrames
100.0	100.0	5	51	mm	100.0	91	181
Frame#	Time	r_knee			r_shank_antsup			r_ankle			r_calc			r_5meta			r_toe			L_knee			L_shank_antsup			L_ankle			L_calc			L_5meta			L_toe			r_sh2			r_sh3			r_sh4			L_sh2			L_sh3			r_thigh1			r_thigh2			r_thigh3			r_thigh4			r_thigh5			L_thigh1			L_thigh2			L_thigh3			L_thigh4			r.ASIS			r.PSIS			L.ASIS			L.PSIS			C7			R_Shoulder			L_Shoulder			R_Sternum			L_Sternum			R_humerus			R_elbow_med			R_elbow_lat			R_forearm			R_wrist_radius			R_wrist_ulna			L_humerus			L_elbow_med			L_elbow_lat			L_forearm			L_wrist_radius			L_wrist_ulna			R_HJC			L_HJC			R_HJC_reg			L_HJC_reg			
		X1	Y1	Z1	X2	Y2	Z2	X3	Y3	Z3	X4	Y4	Z4	X5	Y5	Z5	X6	Y6	Z6	X7	Y7	Z7	X8	Y8	Z8	X9	Y9	Z9	X10	Y10	Z10	X11	Y11	Z11	X12	Y12	Z12	X13	Y13	Z13	X14	Y14	Z14	X15	Y15	Z15	X16	Y16	Z16	X17	Y17	Z17	X18	Y18	Z18	X19	Y19	Z19	X20	Y20	Z20	X21	Y21	Z21	X22	Y22	Z22	X23	Y23	Z23	X24	Y24	Z24	X25	Y25	Z25	X26	Y26	Z26	X27	Y27	Z27	X28	Y28	Z28	X29	Y29	Z29	X30	Y30	Z30	X31	Y31	Z31	X32	Y32	Z32	X33	Y33	Z33	X34	Y34	Z34	X35	Y35	Z35	X36	Y36	Z36	X37	Y37	Z37	X38	Y38	Z38	X39	Y39	Z39	X40	Y40	Z40	X41	Y41	Z41	X42	Y42	Z42	X43	Y43	Z43	X44	Y44	Z44	X45	Y45	Z45	X46	Y46	Z46	X47	Y47	Z47	X48	Y48	Z48	X49	Y49	Z49	X50	Y50	Z50	X51	Y51	Z51	

91	0.90000000	681.99202	432.15548	-39.19262	623.31612	322.50135	-55.69016	360.00225	236.59841	-74.00084	307.42124	264.39980	-121.17697	359.10006	96.64436	-73.83995	395.99144	83.50382	-118.11604	781.50190	465.29323	-340.40559	834.57150	376.98195	-290.56403	807.39307	78.86796	-274.72285	764.65027	52.96044	-220.55818	935.77048	35.45801	-273.97628	970.67660	65.97780	-223.92368	526.80029	271.81216	-74.49830	589.10452	369.64892	-4.92656	485.32332	330.45295	-27.90453	781.88424	379.65209	-359.85166	794.39784	259.71347	-356.38288	796.62089	726.84344	-40.91562	797.37975	615.52229	-30.79319	743.17882	593.14526	2.66173	688.11143	724.64738	-3.14508	687.53409	609.64341	-2.39375	822.01207	765.08526	-360.74966	845.46069	630.48568	-352.17076	714.55441	748.41987	-393.94100	738.73677	609.98584	-375.95921	828.63197	897.09587	-67.59630	647.86396	957.37891	-126.52380	832.33692	927.19164	-310.58687	642.55755	971.23082	-243.15645	663.88748	1412.60065	-236.08657	749.90866	1406.58158	-94.96762	684.61695	1348.16052	-392.44710	789.23916	1357.20299	-232.05929	779.90135	1346.95718	-274.66419	783.07587	1290.64057	-18.26390	696.84181	1094.16349	-14.28909	746.20554	1105.41622	39.91101	807.35475	992.46644	49.77677	845.60662	895.39493	44.46611	817.31763	887.33319	71.05428	671.95894	1195.22752	-442.53871	612.46042	1015.72409	-353.56540	588.56000	1027.28876	-421.64547	612.56982	937.53289	-467.17767	637.94326	810.53536	-474.44586	607.37826	806.62398	-481.29574	735.58227	833.86907	-100.90399	740.26015	853.45631	-289.20878	756.68575	836.96630	-105.84635	749.39221	856.01048	-266.17406	
92	0.91000000	700.51795	432.04391	-37.83148	641.63697	322.57633	-54.59685	377.36109	240.44750	-72.56584	324.30164	268.63302	-118.73302	376.51654	100.57853	-73.51865	413.11557	88.01078	-118.27335	783.90713	465.81749	-341.01858	836.45395	377.09834	-291.50909	807.35180	79.03725	-275.33144	764.63238	53.31919	-221.03787	935.94581	35.49232	-274.32220	970.68051	65.96086	-224.30655	544.60243	273.40477	-73.56125	608.30993	370.12034	-3.67826	503.68123	332.46949	-26.21192	783.45159	380.14610	-360.54225	795.21622	260.18749	-357.19288	807.10827	728.79873	-40.56807	810.50104	617.54013	-29.56849	756.66768	594.13509	3.69559	698.47348	724.31943	-3.66098	700.70583	609.29629	-2.10732	828.09369	765.31288	-361.22811	850.01624	630.42857	-352.88465	720.44763	749.78281	-394.36557	742.92546	611.10708	-376.38713	836.59429	898.35691	-67.83204	655.72891	958.08035	-126.90560	839.97974	927.80488	-310.98348	650.38531	972.32582	-243.41300	672.46503	1413.37115	-239.35223	758.16750	1408.06195	-97.96523	693.49267	1347.62646	-395.25391	797.77735	1357.82687	-234.71808	788.46236	1347.26527	-277.13717	791.15328	1292.54972	-20.49383	704.75628	1096.09639	-15.37761	754.45169	1107.50209	38.52423	815.57143	994.49534	48.38623	853.52885	897.15511	43.08758	825.75339	889.29698	69.94832	681.52825	1194.32457	-444.40483	622.59589	1014.97897	-354.78023	599.07090	1025.91017	-422.94880	623.74683	936.12405	-467.93186	650.16383	809.68876	-474.70711	619.24041	804.82799	-480.96314	743.49494	834.92864	-101.04683	748.01896	854.20505	-289.38807	764.79938	837.26150	-106.42712	757.44681	856.86436	-266.73567	
93	0.92000000	719.08090	432.26258	-36.54051	660.28296	322.86195	-53.61433	395.38331	243.48946	-71.33372	341.70141	271.70228	-116.66741	395.30287	103.86589	-72.82244	431.74443	91.89007	-117.96473	786.57284	466.36685	-341.37965	838.53486	377.20186	-292.22470	807.37384	79.27166	-275.78843	764.69729	53.62691	-221.40150	936.11449	35.51360	-274.61780	970.72172	65.89636	-224.61364	562.94477	274.73025	-72.66599	627.61948	370.60145	-2.45139	522.35215	334.09923	-24.60950	785.21668	380.69714	-360.97869	796.17796	260.67105	-357.77795	817.48261	730.95491	-40.29721	823.60464	619.83906	-28.57091	770.22132	595.32658	4.66428	708.84991	724.08910	-4.02012	713.95532	609.08960	-1.74076	834.04343	765.58307	-361.64791	854.64488	630.48179	-353.38172	726.28975	751.06854	-394.66368	747.27503	612.19746	-376.64473	844.41184	899.65336	-68.25407	663.42668	958.85085	-127.14825	847.26608	928.46201	-311.57283	657.91978	973.37916	-243.54469	681.04048	1414.06430	-242.45906	766.38675	1409.46904	-100.89178	702.36313	1347.07819	-397.99911	806.25404	1358.35334	-237.29207	796.93794	1347.46179	-279.56066	799.14392	1294.34535	-22.70074	712.35967	1098.00174	-16.51972	762.30383	1109.51398	37.17790	823.33015	996.43168	47.12688	861.07449	898.90161	41.93757	833.66290	891.20625	68.92785	691.21885	1193.40193	-446.21919	632.68536	1014.18374	-356.11399	609.61741	1024.53627	-424.42159	635.08374	934.71943	-468.82661	662.47607	808.84384	-475.13039	631.30001	803.10151	-480.74845	751.28770	836.01807	-101.21293	755.40968	854.97713	-289.59507	772.71787	837.71997	-107.03912	765.13298	857.72918	-267.34196	
94	0.93000000	737.69995	432.78012	-35.37201	679.24278	323.33599	-52.76153	414.00134	245.70633	-70.30830	359.61291	273.64222	-115.03498	415.25838	106.49139	-71.65711	451.65940	95.00184	-117.05583	789.48593	466.92480	-341.48420	840.78655	377.27134	-292.73711	807.46904	79.55992	-276.04885	764.82945	53.88420	-221.63464	936.24879	35.50825	-274.84077	970.81309	65.77584	-224.82517	581.78668	275.84347	-71.86403	647.02817	371.08168	-1.28141	541.32656	335.31503	-23.15464	787.11751	381.26781	-361.15257	797.20854	261.14400	-358.10651	827.75795	733.29576	-40.11249	836.70000	622.40863	-27.78102	783.86079	596.71546	5.54116	719.23330	723.95040	-4.25074	727.29543	609.01746	-1.31724	839.87163	765.87300	-362.02884	859.32821	630.60400	-353.69078	732.01931	752.24547	-394.81091	751.73600	613.23174	-376.72386	852.08389	900.97992	-68.85422	670.96377	959.69566	-127.27384	854.24276	929.14435	-312.31930	665.17849	974.37618	-243.58455	689.57210	1414.69346	-245.45254	774.56446	1410.81096	-103.76325	711.20035	1346.52168	-400.67570	814.66983	1358.78816	-239.79744	805.32523	1347.56119	-281.95065	807.08288	1296.04286	-24.90641	719.67069	1099.90101	-17.67705	769.80757	1111.48249	35.87627	830.66094	998.29754	45.99437	868.22624	900.63718	40.97535	841.02982	893.07679	68.00668	701.00460	1192.48117	-447.97483	642.75087	1013.34370	-357.54893	620.19604	1023.17877	-426.04549	646.57416	933.33869	-469.85793	674.95735	807.98870	-475.71958	643.63973	801.46949	-480.71260	758.95906	837.13587	-101.39819	762.47065	855.75652	-289.82516	780.44717	838.36280	-107.65973	772.47317	858.59493	-267.95720	
95	0.94000000	756.37623	433.57496	-34.36973	698.48588	323.98950	-52.04291	433.14738	247.10160	-69.44397	378.00697	274.46961	-113.81776	436.25322	108.44902	-69.98042	472.68782	97.27045	-115.50615	792.61683	467.47873	-341.34790	843.17422	377.29911	-293.05598	807.64619	79.88537	-276.08916	765.00785	54.09433	-221.73894	936.34125	35.47880	-274.98372	970.95900	65.59811	-224.93219	601.07905	276.80369	-71.17392	666.51306	371.58911	-0.21262	560.57868	336.13833	-21.88231	789.12367	381.83261	-361.07619	798.28041	261.60684	-358.17432	837.94987	735.80444	-40.01363	849.78019	625.23207	-27.18740	797.59187	598.30178	6.30445	729.61484	723.89508	-4.38941	740.72954	609.08903	-0.85917	845.58610	766.15216	-362.38373	864.02117	630.73738	-353.86927	737.59532	753.29518	-394.81458	756.24036	614.19290	-376.62688	859.60990	902.33908	-69.60011	678.34157	960.60315	-127.31250	860.96582	929.82373	-313.16941	672.18779	975.29686	-243.56710	697.99972	1415.28294	-248.39027	782.69029	1412.08891	-106.59381	719.97049	1345.96630	-403.28185	823.01312	1359.13625	-242.25050	813.61540	1347.58130	-284.31476	814.96857	1297.65445	-27.11631	726.70928	1101.80091	-18.82007	777.00219	1113.42656	34.62311	837.60570	1000.10905	44.97637	874.99057	902.35613	40.15828	847.88582	894.91458	67.19177	710.84336	1191.59001	-449.67395	652.81237	1012.47140	-359.06649	630.81150	1021.84325	-427.79541	658.21636	932.00224	-471.01308	687.68019	807.12635	-476.46885	656.32817	799.92804	-480.89970	766.50927	838.27884	-101.58543	769.25806	856.51622	-290.06121	788.00060	839.18577	-108.26303	779.51606	859.44333	-268.54369	
